{"title":"Short Term 12 2013 DVDrip English Klam","uid":11718177,"size":1503237047,"categoryP":"video","categoryS":"movies","magnet":"?xt=urn:btih:b6b591ed185822027a460f9c6c516569f34d3957&amp;dn=Short+Term+12+2013+DVDrip+English+Klam&amp;tr=udp%3A%2F%2Ftracker.openbittorrent.com%3A80&amp;tr=udp%3A%2F%2Fopen.demonii.com%3A1337&amp;tr=udp%3A%2F%2Ftracker.coppersurfer.tk%3A6969&amp;tr=udp%3A%2F%2Fexodus.desync.com%3A6969","seeders":0,"leechers":1,"uploader":"Klambake","files":6,"time":1424692070,"description":" &lt;a href=&quot;http://i.imgur.com/9YnezCs.jpg&quot; rel=&quot;nofollow&quot; target=&quot;_NEW&quot;&gt;http://i.imgur.com/9YnezCs.jpg&lt;/a&gt;\n\nWith: Brie Larson, John Gallagher Jr. and Kaitlyn Dever\n\nGrace is een jonge vrouw die actief is in de jeugdzorg. Samen met haar vriend Mason werkt ze in een tehuis voor uithuisgeplaatste jongeren. Deze zware baan zorgt ervoor dat haar relatie, haar verleden en haar toekomst onder druk komen te staan.\n\nA 20-something supervising staff member of a residential treatment facility navigates the troubled waters of that world alongside her co-worker and longtime boyfriend.\n &lt;a href=&quot;\nhttp://www.imdb.com/title/tt2370248&quot; rel=&quot;nofollow&quot; target=&quot;_NEW&quot;&gt;\nhttp://www.imdb.com/title/tt2370248&lt;/a&gt;\n\n--------------------- Dutch Friends 4ever ---------------------\n---------------------------------------------------------------\n- Bezoek ook eens mijn vrienden op: &lt;a href=&quot; http://www.Film-Test.nl&quot; rel=&quot;nofollow&quot; target=&quot;_NEW&quot;&gt; http://www.Film-Test.nl&lt;/a&gt; --\n----- voor mijn Nederlandse Sync. ondertitels ---- en meer ----\n------- http://www.Film-Test.nl ---- Over Films en meer -------\n---------------------------------------------------------------\n &lt;a href=&quot;\nhttp://i.imgur.com/JdHEPAm.jpg&quot; rel=&quot;nofollow&quot; target=&quot;_NEW&quot;&gt;\nhttp://i.imgur.com/JdHEPAm.jpg&lt;/a&gt; &lt;a href=&quot;\nhttp://i.imgur.com/nQVRjoI.jpg&quot; rel=&quot;nofollow&quot; target=&quot;_NEW&quot;&gt;\nhttp://i.imgur.com/nQVRjoI.jpg&lt;/a&gt; &lt;a href=&quot;\nhttp://i.imgur.com/Jl2twgj.jpg&quot; rel=&quot;nofollow&quot; target=&quot;_NEW&quot;&gt;\nhttp://i.imgur.com/Jl2twgj.jpg&lt;/a&gt;\n\nGeneral:\n\nComplete name                            : Short Term 12Short Term 12.avi\nFormat                                   : AVI\nFormat/Info                              : Audio Video Interleave\nFile size                                : 1.40 GiB\nDuration                                 : 1h 32mn\nOverall bit rate                         : 2 155 Kbps\n\nVideo:\n\nFormat                                   : MPEG-4 Visual\nFormat profile                           : Simple@L3\nFormat settings, BVOP                    : No\nFormat settings, QPel                    : No\nFormat settings, GMC                     : No warppoints\nFormat settings, Matrix                  : Default (H.263)\nCodec ID                                 : XVID\nCodec ID/Hint                            : XviD\nDuration                                 : 1h 32mn\nBit rate                                 : 1 696 Kbps\nWidth                                    : 704 pixels\nHeight                                   : 396 pixels\nDisplay aspect ratio                     : 16:9\nFrame rate                               : 25.000 fps\nColor space                              : YUV\nChroma subsampling                       : 4:2:0\nBit depth                                : 8 bits\nScan type                                : Progressive\nCompression mode                         : Lossy\nBits/(Pixel*Frame)                       : 0.243\nStream size                              : 1.10 GiB (79%)\nWriting library                          : XviD 1.1.2 (UTC 2006-11-01)\n\nAudio:\n\nFormat                                   : AC-3\nFormat/Info                              : Audio Coding 3\nMode extension                           : CM (complete main)\nFormat settings, Endianness              : Big\nCodec ID                                 : 2000\nDuration                                 : 1h 32mn\nSource duration                          : 1h 32mn\nBit rate mode                            : Constant\nBit rate                                 : 448 Kbps\nChannel(s)                               : 6 channels\nChannel positions                        : Front: L C R, Side: L R, LFE\nSampling rate                            : 48.0 KHz\nBit depth                                : 16 bits\nCompression mode                         : Lossy\nStream size                              : 298 MiB (21%)\nAlignment                                : Aligned on interleaves\nInterleave, duration                     : 32 ms (0.80 video frame)\nInterleave, preload duration             : 512 ms","torrent":{"xt":"urn:btih:b6b591ed185822027a460f9c6c516569f34d3957","amp;dn":"Short+Term+12+2013+DVDrip+English+Klam","amp;tr":["udp%3A%2F%2Ftracker.openbittorrent.com%3A80","udp%3A%2F%2Fopen.demonii.com%3A1337","udp%3A%2F%2Ftracker.coppersurfer.tk%3A6969","udp%3A%2F%2Fexodus.desync.com%3A6969"],"infoHash":"b6b591ed185822027a460f9c6c516569f34d3957","infoHashBuffer":{"type":"Buffer","data":[182,181,145,237,24,88,34,2,122,70,15,156,108,81,101,105,243,77,57,87]},"announce":[],"urlList":[]}}